<svg width="20" height="18" viewBox="0 0 20 18" fill="none" xmlns="http://www.w3.org/2000/svg">
<path d="M17 3.49999H15.72L15.4 2.49999C15.1926 1.91322 14.8077 1.40549 14.2989 1.04715C13.7901 0.68881 13.1824 0.497593 12.56 0.499992H7.44C6.81155 0.501167 6.19933 0.699675 5.68977 1.0675C5.1802 1.43532 4.79901 1.95388 4.6 2.54999L4.28 3.54999H3C2.20435 3.54999 1.44129 3.86606 0.87868 4.42867C0.316071 4.99128 0 5.75434 0 6.54999V14.55C0 15.3456 0.316071 16.1087 0.87868 16.6713C1.44129 17.2339 2.20435 17.55 3 17.55H17C17.7956 17.55 18.5587 17.2339 19.1213 16.6713C19.6839 16.1087 20 15.3456 20 14.55V6.54999C20.0066 6.15184 19.9339 5.75635 19.7862 5.38658C19.6384 5.01681 19.4184 4.68017 19.1392 4.39628C18.86 4.11238 18.527 3.88692 18.1597 3.73304C17.7924 3.57916 17.3982 3.49994 17 3.49999ZM18 14.5C18 14.7652 17.8946 15.0196 17.7071 15.2071C17.5196 15.3946 17.2652 15.5 17 15.5H3C2.73478 15.5 2.48043 15.3946 2.29289 15.2071C2.10536 15.0196 2 14.7652 2 14.5V6.49999C2 6.23478 2.10536 5.98042 2.29289 5.79289C2.48043 5.60535 2.73478 5.49999 3 5.49999H5C5.21807 5.51137 5.43386 5.45107 5.61443 5.32828C5.795 5.20549 5.93042 5.02697 6 4.81999L6.54 3.17999C6.60709 2.98137 6.7349 2.80886 6.90537 2.68683C7.07584 2.56481 7.28036 2.49945 7.49 2.49999H12.61C12.8196 2.49945 13.0242 2.56481 13.1946 2.68683C13.3651 2.80886 13.4929 2.98137 13.56 3.17999L14.1 4.81999C14.1642 5.01074 14.2844 5.17768 14.445 5.299C14.6055 5.42032 14.799 5.49037 15 5.49999H17C17.2652 5.49999 17.5196 5.60535 17.7071 5.79289C17.8946 5.98042 18 6.23478 18 6.49999V14.5ZM10 5.49999C9.20887 5.49999 8.43552 5.73459 7.77772 6.17411C7.11992 6.61364 6.60723 7.23835 6.30448 7.96926C6.00173 8.70016 5.92252 9.50443 6.07686 10.2804C6.2312 11.0563 6.61216 11.769 7.17157 12.3284C7.73098 12.8878 8.44372 13.2688 9.21964 13.4231C9.99556 13.5775 10.7998 13.4983 11.5307 13.1955C12.2616 12.8928 12.8864 12.3801 13.3259 11.7223C13.7654 11.0645 14 10.2911 14 9.49999C14 8.43913 13.5786 7.42171 12.8284 6.67156C12.0783 5.92142 11.0609 5.49999 10 5.49999ZM10 11.5C9.60444 11.5 9.21776 11.3827 8.88886 11.1629C8.55996 10.9432 8.30362 10.6308 8.15224 10.2654C8.00087 9.89991 7.96126 9.49777 8.03843 9.10981C8.1156 8.72185 8.30608 8.36548 8.58579 8.08578C8.86549 7.80607 9.22186 7.61559 9.60982 7.53842C9.99778 7.46125 10.3999 7.50086 10.7654 7.65223C11.1308 7.80361 11.4432 8.05995 11.6629 8.38885C11.8827 8.71775 12 9.10443 12 9.49999C12 10.0304 11.7893 10.5391 11.4142 10.9142C11.0391 11.2893 10.5304 11.5 10 11.5Z" fill="#2D2F30"/>
</svg>
